<?xml version="1.0" standalone="no"?>
<!DOCTYPE svg PUBLIC "-//W3C//DTD SVG 20010904//EN"
 "http://www.w3.org/TR/2001/REC-SVG-20010904/DTD/svg10.dtd">
<svg version="1.0" xmlns="http://www.w3.org/2000/svg"
 width="1920.000000pt" height="1920.000000pt" viewBox="0 0 1920.000000 1920.000000"
 preserveAspectRatio="xMidYMid meet">
<metadata>
Created by potrace 1.16, written by Peter Selinger 2001-2019
</metadata>
<g transform="translate(0.000000,1920.000000) scale(0.100000,-0.100000)"
fill="#000000" stroke="none">
<path d="M9135 19194 c-27 -2 -117 -9 -200 -14 -1694 -119 -3386 -713 -4795
-1683 -755 -520 -1425 -1138 -1987 -1834 -890 -1101 -1532 -2394 -1873 -3773
-137 -552 -206 -984 -262 -1630 -17 -196 -17 -1124 0 -1320 56 -646 125 -1078
262 -1630 505 -2038 1659 -3866 3257 -5157 1101 -890 2394 -1532 3773 -1873
552 -137 984 -206 1630 -262 93 -8 330 -13 660 -13 508 0 584 3 960 41 188 18
516 64 705 99 2291 416 4356 1628 5782 3392 890 1101 1532 2394 1873 3773 137
552 206 984 262 1630 8 93 13 330 13 660 0 508 -3 584 -41 960 -18 188 -64
516 -99 705 -416 2291 -1628 4356 -3392 5782 -1101 890 -2394 1532 -3773 1873
-545 135 -958 202 -1605 261 -114 10 -1044 21 -1150 13z m820 -634 c974 -45
1881 -232 2810 -580 531 -198 1162 -514 1663 -832 1726 -1095 3001 -2733 3669
-4713 429 -1274 567 -2609 402 -3915 -183 -1459 -735 -2885 -1581 -4093 -855
-1219 -1978 -2178 -3333 -2847 -511 -252 -988 -439 -1510 -590 -1641 -476
-3309 -476 -4950 0 -952 276 -1887 724 -2698 1292 -1552 1089 -2702 2640
-3324 4483 -429 1274 -567 2609 -402 3915 183 1459 735 2885 1581 4093 1089
1552 2640 2702 4483 3324 1034 348 2153 511 3190 463z"/>
<path d="M6970 14180 l0 -1890 -1870 0 -1870 0 0 -2670 0 -2670 1870 0 1870 0
0 -1850 0 -1850 2670 0 2670 0 0 1850 0 1850 1870 0 1870 0 0 2670 0 2670
-1870 0 -1870 0 0 1890 0 1890 -2670 0 -2670 0 0 -1890z"/>
</g>
</svg>
